<?xml version="1.0" encoding="utf-8"?>
<!-- Generator: Adobe Illustrator 24.1.2, SVG Export Plug-In . SVG Version: 6.00 Build 0)  -->
<svg version="1.1" id="Camada_1" xmlns="http://www.w3.org/2000/svg" xmlns:xlink="http://www.w3.org/1999/xlink" x="0px" y="0px"
	 viewBox="0 0 512 512" style="enable-background:new 0 0 512 512;" xml:space="preserve">
<style type="text/css">
	.st0{fill:#191D2D;}
	.st1{fill-rule:evenodd;clip-rule:evenodd;fill:#5EA2E5;}
	.st2{fill-rule:evenodd;clip-rule:evenodd;fill:#4163E6;}
</style>
<rect class="st0" width="512" height="512"/>
<g>
	<g>
		<path class="st1" d="M252.9,484c-13-101.9-54.2-198.6-119.5-279C219.3,140.7,318,95.6,422.8,72.9c9.1,14.7,17.8,29.7,26,45
			c-78.7,5.5-156.3,23.3-229.8,52.8l-14.3,5.7l6.3,14.1C252.2,282.4,266.6,384.7,252.9,484"/>
		<path class="st2" d="M233.1,474.6c-39.4-89.9-102.2-168.1-182.3-226.1C117,164.1,200.7,95,296.1,46c11.7,11,23.1,22.3,34.1,33.9
			c-74.4,25.8-144.5,63-207.7,110.5l-15.3,11.5l12,14.8C179.8,291.2,219,380.4,233.1,474.6"/>
	</g>
</g>
</svg>
