<?xml version="1.0" encoding="utf-8"?>
<!-- Generator: Adobe Illustrator 24.1.2, SVG Export Plug-In . SVG Version: 6.00 Build 0)  -->
<svg version="1.1" id="Camada_1" xmlns="http://www.w3.org/2000/svg" xmlns:xlink="http://www.w3.org/1999/xlink" x="0px" y="0px"
	 viewBox="0 0 1000 1000" style="enable-background:new 0 0 1000 1000;" xml:space="preserve">
<style type="text/css">
	.st0{fill-rule:evenodd;clip-rule:evenodd;fill:#5EA2E5;}
	.st1{fill-rule:evenodd;clip-rule:evenodd;fill:#4163E6;}
	.st2{fill:#191D2D;}
	.st3{font-family:'Geist-Black';}
	.st4{font-size:179.7235px;}
	.st5{letter-spacing:-8;}
	.st6{font-family:'Geist-Light';}
	.st7{fill:#4D5668;}
	.st8{font-family:'Geist-Medium';}
	.st9{font-size:31.9691px;}
	.st10{letter-spacing:7;}
</style>
<g>
	<g>
		<path class="st0" d="M158.19,550.05c-6.04-47.49-25.24-92.55-55.66-129.96c39.98-29.99,85.97-50.99,134.82-61.55
			c4.26,6.87,8.3,13.86,12.11,20.96c-36.66,2.57-72.81,10.85-107.05,24.6l-6.65,2.67l2.93,6.54
			C157.86,456.14,164.55,503.77,158.19,550.05"/>
		<path class="st1" d="M148.94,545.66C130.6,503.8,101.35,467.37,64,440.34c30.85-39.32,69.84-71.5,114.3-94.34
			c5.45,5.11,10.74,10.38,15.87,15.78c-34.65,12.02-67.32,29.36-96.78,51.47l-7.12,5.34l5.61,6.9
			C124.13,460.22,142.36,501.77,148.94,545.66"/>
	</g>
	<text transform="matrix(1 0 0 1 176.9707 532.7979)" class="st2 st3 st4 st5">CV</text>
	<text transform="matrix(1 0 0 1 436.7285 532.7979)" class="st2 st6 st4">FÁCIL</text>
	<text transform="matrix(1 0 0 1 192.7256 584.7422)" class="st7 st8 st9 st10">CURRÍCULOS QUE ABREM PORTAS</text>
</g>
</svg>
