<?xml version="1.0" encoding="utf-8"?>
<!-- Generator: Adobe Illustrator 24.1.2, SVG Export Plug-In . SVG Version: 6.00 Build 0)  -->
<svg version="1.1" id="Camada_1" xmlns="http://www.w3.org/2000/svg" xmlns:xlink="http://www.w3.org/1999/xlink" x="0px" y="0px"
	 viewBox="0 0 512 512" style="enable-background:new 0 0 512 512;" xml:space="preserve">
<style type="text/css">
	.st0{fill-rule:evenodd;clip-rule:evenodd;fill:#5EA2E5;}
	.st1{fill-rule:evenodd;clip-rule:evenodd;fill:#4163E6;}
	.st2{fill:#191D2D;}
	.st3{fill:#4D5668;}
	.st4{font-family:'Geist-Medium';}
	.st5{font-size:19.2118px;}
	.st6{letter-spacing:4;}
</style>
<g>
	<g>
		<path class="st0" d="M251.47,304.39c-8.1-63.63-33.81-123.99-74.58-174.12c53.56-40.18,115.18-68.31,180.63-82.46
			c5.71,9.2,11.13,18.56,16.23,28.08c-49.12,3.44-97.55,14.53-143.42,32.96l-8.91,3.58l3.92,8.77
			C251.03,178.57,259.99,242.38,251.47,304.39"/>
		<path class="st1" d="M239.08,298.51c-24.58-56.09-63.76-104.9-113.8-141.11c41.34-52.68,93.57-95.8,153.13-126.4
			c7.3,6.85,14.39,13.9,21.26,21.14c-46.42,16.11-90.2,39.34-129.66,68.96l-9.54,7.15l7.52,9.25
			C205.83,184.03,230.26,239.7,239.08,298.51"/>
	</g>
	<g>
		<g>
			<path class="st2" d="M67.48,418.96c-23.29,0-38.45-17.36-38.45-40.65c0-23.29,15.05-40.87,38.45-40.87
				c18.46,0,30.65,10.54,34.49,27.9l-19.88,0.88c-1.76-7.91-7.03-12.96-15.05-12.96c-12.3,0-18.24,10.43-18.24,25.05
				c0,14.5,5.93,24.83,18.24,24.83c8.24,0,13.62-5.49,15.05-13.95l20.1,0.88C98.46,407.97,86.27,418.96,67.48,418.96z"/>
			<path class="st2" d="M122.26,337.84l19.6,57.03l19.6-57.03h19.49l-28.51,79.08h-21.16l-28.51-79.08H122.26z"/>
		</g>
		<g>
			<path class="st2" d="M242.12,340.88v6.08h-42.58v27.37h39.54v6.08h-39.54v36.5h-6.08v-76.04H242.12z"/>
			<path class="st2" d="M278.19,337.84h9.91l28.84,79.08h-7.59l-8.68-24.33H265.5l-8.57,24.33h-7.59L278.19,337.84z M297.48,386.51
				l-14.39-40.65l-14.28,40.65H297.48z M287.22,316.55h8.93l-10.62,15.21h-6.28L287.22,316.55z"/>
			<path class="st2" d="M359.12,418.96c-21.86,0-34.71-17.25-34.71-40.65c0-23.51,12.74-40.87,34.71-40.87
				c15.71,0,26.69,10.1,30.1,24.61l-7.91,0.66c-2.53-10.76-10.44-17.9-22.19-17.9c-18.01,0-26.91,14.61-26.91,33.5
				c0,18.78,9.01,33.29,26.91,33.29c12.19,0,20.43-7.91,22.74-19.66l8.02,0.66C387.03,408.08,376.04,418.96,359.12,418.96z"/>
			<path class="st2" d="M412.44,337.84v79.08h-6.08v-79.08H412.44z"/>
			<path class="st2" d="M433.74,340.88h6.08v69.96h42.58v6.08h-48.67V340.88z"/>
		</g>
	</g>
	<text transform="matrix(1 0 0 1 37.5342 451.6953)" class="st3 st4 st5 st6">CURRÍCULOS QUE ABREM PORTAS</text>
</g>
</svg>
