<?xml version="1.0" encoding="utf-8"?>
<!-- Generator: Adobe Illustrator 24.1.2, SVG Export Plug-In . SVG Version: 6.00 Build 0)  -->
<svg version="1.1" id="Camada_1" xmlns="http://www.w3.org/2000/svg" xmlns:xlink="http://www.w3.org/1999/xlink" x="0px" y="0px"
	 viewBox="0 0 192 192" style="enable-background:new 0 0 192 192;" xml:space="preserve">
<style type="text/css">
	.st0{display:none;fill-rule:evenodd;clip-rule:evenodd;fill:#4163E6;}
	.st1{fill-rule:evenodd;clip-rule:evenodd;fill:#5EA2E5;}
	.st2{fill-rule:evenodd;clip-rule:evenodd;fill:#4163E6;}
	.st3{fill:#191D2D;}
	.st4{fill:#4D5668;}
	.st5{font-family:'Geist-Medium';}
	.st6{font-size:6.3164px;}
	.st7{letter-spacing:1;}
</style>
<rect x="-4" y="-4" class="st0" width="201" height="201"/>
<g>
	<path class="st1" d="M95.07,113c-2.66-20.92-11.12-40.77-24.52-57.25c17.61-13.21,37.87-22.46,59.39-27.11
		c1.88,3.03,3.66,6.1,5.34,9.23c-16.15,1.13-32.07,4.78-47.15,10.84l-2.93,1.18l1.29,2.88C94.93,71.63,97.88,92.61,95.07,113"/>
	<path class="st2" d="M91,111.07c-8.08-18.44-20.96-34.49-37.42-46.39c13.59-17.32,30.76-31.5,50.35-41.56
		c2.4,2.25,4.73,4.57,6.99,6.95C95.66,35.36,81.27,43,68.29,52.74l-3.14,2.35l2.47,3.04C80.07,73.43,88.1,91.73,91,111.07"/>
</g>
<g>
	<g>
		<path class="st3" d="M34.58,150.67c-7.66,0-12.64-5.71-12.64-13.36c0-7.66,4.95-13.44,12.64-13.44c6.07,0,10.08,3.47,11.34,9.17
			l-6.54,0.29c-0.58-2.6-2.31-4.26-4.95-4.26c-4.04,0-6,3.43-6,8.24c0,4.77,1.95,8.16,6,8.16c2.71,0,4.48-1.81,4.95-4.59l6.61,0.29
			C44.77,147.06,40.76,150.67,34.58,150.67z"/>
		<path class="st3" d="M52.6,124l6.44,18.75L65.49,124h6.41l-9.37,26h-6.96l-9.37-26H52.6z"/>
	</g>
	<g>
		<path class="st3" d="M92,125v2H78v9h13v2H78v12h-2v-25H92z"/>
		<path class="st3" d="M103.86,124h3.26l9.48,26h-2.49l-2.85-8H99.69l-2.82,8h-2.49L103.86,124z M110.2,140l-4.73-13.36l-4.7,13.36
			H110.2z M106.83,117h2.94l-3.49,5h-2.06L106.83,117z"/>
		<path class="st3" d="M130.47,150.67c-7.19,0-11.41-5.67-11.41-13.36c0-7.73,4.19-13.44,11.41-13.44c5.17,0,8.78,3.32,9.9,8.09
			l-2.6,0.22c-0.83-3.54-3.43-5.89-7.3-5.89c-5.92,0-8.85,4.8-8.85,11.02c0,6.18,2.96,10.94,8.85,10.94c4.01,0,6.72-2.6,7.48-6.46
			l2.64,0.22C139.64,147.09,136.03,150.67,130.47,150.67z"/>
		<path class="st3" d="M148,124v26h-2v-26H148z"/>
		<path class="st3" d="M155,125h2v23h14v2h-16V125z"/>
	</g>
</g>
<text transform="matrix(1 0 0 1 24.7383 161.4326)" class="st4 st5 st6 st7">CURRÍCULOS QUE ABREM PORTAS</text>
</svg>
